<svg id="Layer_1" data-name="Layer 1" xmlns="http://www.w3.org/2000/svg" viewBox="0 0 870.92 208.47">
    <defs>
        <style>.cls-1{fill:none;}.cls-2,.cls-3{fill:#fff;}.cls-3{font-size:152px;font-family:AirbnbCerealApp-Bold,
            Airbnb Cereal App;font-weight:700;}
        </style>
    </defs>
    <title>Bleu Pigs - Logo and text - smaller - inverted</title>
    <g id="Layer_1-2" data-name="Layer 1-2">
        <path class="cls-1"
              d="M76.54,339.24V130.76H285V339.24ZM87.08,184a2,2,0,0,1-.54.11,4.36,4.36,0,0,1-.77-.26A10.08,10.08,0,0,1,80.58,179c-.4-.76-1.47-1.17-2.23-1.74a8,8,0,0,0-1.27,2.58,8.85,8.85,0,0,0,1.93,7,16.32,16.32,0,0,0,8.75,5.58,6.56,6.56,0,0,1,3.44,2.09c3.38,4.57,6.55,9.3,9.74,14a3.83,3.83,0,0,1,.71,2.17c-.26,4.52-.82,9-.93,13.58a224.82,224.82,0,0,0,2.72,37.9,151.22,151.22,0,0,0,10.79,38.67c1.9,4.4,4.47,6.59,9.43,5.89,1.91-.26,2.83-.77,3-2.71.8-11.09,5-21,10.4-30.57.85-1.52,1.7-1.84,3.41-1.43,6.19,1.48,12.38,3.06,18.66,4,12.38,1.92,24.89,1.45,37.37,1.19,1.75,0,2.37.48,3,2.05,3.18,7.55,6.54,15,9.86,22.52,1.59,3.61,4.12,5.43,8.3,4.89,3-.37,3.53-.55,3.43-3.64-.16-5.15-.45-10.31-.46-15.45,0-3.86.32-7.72.51-11.58.06-1.22.6-1.68,1.95-1.63a108.7,108.7,0,0,0,36.38-4.54,151.68,151.68,0,0,0,17.1-6.91,8.72,8.72,0,0,0,4.88-6.41c.94-4,2.06-8,3-12,.51-2.1-.12-2.92-2.26-3.11-1.63-.15-3.26-.15-4.89-.28-4.34-.34-7.44-2.39-9-6.51a52.8,52.8,0,0,1-1.63-5.43c-1-3.95-2.49-7.61-5.66-10.37a5.93,5.93,0,0,1-.79-1.2c8.57-1.28,15.74-4.51,20-12.3,4.1-7.51,3.9-15.39,2-23.57-1.34,1.62-2.43,3.11-3.67,4.43-4.64,4.94-10.62,7.39-17.05,8.92-9.73,2.3-16.4,8-19.84,17.47a11,11,0,0,1-.65,1.22,90.5,90.5,0,0,1-.28-13.07,12.4,12.4,0,0,1,4-8.28c1.74-1.63,1.37-3,0-4.29-3.87-3.59-7.46-7.69-11.88-10.42-15.34-9.47-32.24-13.8-50.24-14.4a113.11,113.11,0,0,0-41.32,6.56c-11.35,4-21.53,10-29.25,19.52-2,2.52-3.86,5.21-6,8.17L99.65,192c2-.77,3.5-1.22,4.89-1.89,7.51-3.67,9.83-14.34,4.4-20.27-3.68-4-8.22-4.34-13.08-2.76s-8.09,5-8.73,10.2A55,55,0,0,0,87.08,184Zm53.75,95c-.12.32-.22.45-.2.54a7,7,0,0,0,.2,1c1.91,8.05,6.29,14.75,11.22,21.23,2.71,3.55,5.87,5.39,10.42,4.93,1.7-.17,2.28-.58,2.09-2.27-.75-6.8-1.41-13.61-2.21-20.41a2,2,0,0,0-1.51-1.28,71.05,71.05,0,0,1-17.76-3.2C142.33,279.34,141.56,279.19,140.83,279Zm87.88,4.39c2.63,6.39,5.2,12.49,7.64,18.62,1.38,3.47,3.44,5.23,7.47,4.72,3.29-.42,3.85-.68,3.44-4.07-.54-4.31-1.15-8.6-1.58-12.91-.3-3-.33-6.05-.49-9.15Z"
              transform="translate(-76.54 -130.76)"/>
        <path class="cls-2"
              d="M87.08,184a54.94,54.94,0,0,1,0-6.79c.64-5.25,3.8-8.58,8.72-10.2s9.4-1.26,13.08,2.76c5.43,5.93,3.11,16.6-4.41,20.27-1.37.67-2.86,1.12-4.88,1.89l6.4,5.66c2.17-3,4-5.66,6-8.18,7.72-9.52,17.91-15.53,29.25-19.52a113.14,113.14,0,0,1,41.33-6.58c18,.58,34.9,4.89,50.22,14.39,4.42,2.71,8,6.83,11.88,10.42,1.35,1.26,1.72,2.67,0,4.29a12.38,12.38,0,0,0-4,8.27,92.13,92.13,0,0,0,.27,13.08,9.06,9.06,0,0,0,.66-1.23c3.44-9.43,10.11-15.17,19.84-17.47,6.43-1.52,12.41-4,17.05-8.91,1.24-1.33,2.33-2.8,3.67-4.44,1.88,8.19,2.08,16.06-2,23.57-4.26,7.79-11.41,11-20,12.3a5.84,5.84,0,0,0,.8,1.2c3.17,2.76,4.65,6.43,5.66,10.37.47,1.83,1,3.66,1.63,5.43,1.53,4.14,4.65,6.19,9,6.51,1.63.13,3.26.14,4.89.28,2.17.19,2.76,1,2.26,3.12-1,4-2.08,8-3,12a8.76,8.76,0,0,1-4.89,6.41c-5.62,2.49-11.24,5.14-17.09,6.91a108.74,108.74,0,0,1-36.38,4.55c-1.35-.06-1.89.4-2,1.63-.19,3.86-.55,7.71-.51,11.57,0,5.16.3,10.32.46,15.46.1,3.09-.39,3.25-3.43,3.63-4.18.49-6.71-1.29-8.31-4.89-3.31-7.5-6.67-15-9.86-22.51-.66-1.58-1.28-2.09-3-2.05-12.49.26-25,.73-37.37-1.2-6.29-1-12.49-2.54-18.67-4-1.7-.4-2.55-.09-3.4,1.43-5.38,9.55-9.61,19.48-10.4,30.57-.15,1.94-1.06,2.45-3,2.72-5,.7-7.53-1.5-9.43-5.9a151.44,151.44,0,0,1-10.79-38.66,230.26,230.26,0,0,1-2.71-37.91c.1-4.52.66-9,.92-13.57a3.81,3.81,0,0,0-.71-2.18c-3.18-4.7-6.36-9.43-9.74-14a6.54,6.54,0,0,0-3.47-2.09A16.29,16.29,0,0,1,79,186.85a7.25,7.25,0,0,1-.62-9.63c.77.57,1.84,1,2.24,1.74a10,10,0,0,0,5.16,4.92,4.26,4.26,0,0,0,.76.26A2,2,0,0,0,87.08,184Zm12.77-9.7c-1.48,0-3.61.7-4.22,2.71s-.24,4.19-.21,6.31c0,.22.55.55.93.64,2.6.58,6.72-2,7.37-4.61C104.43,176.55,103,174.31,99.85,174.33Zm161,63.82a4.57,4.57,0,0,0-4.42-4.7h-.14a5,5,0,0,0-4.76,4.61,4.91,4.91,0,0,0,4.57,4.55A4.5,4.5,0,0,0,260.8,238.15Z"
              transform="translate(-76.54 -130.76)"/>
        <path class="cls-2"
              d="M140.83,279c.73.18,1.5.33,2.25.54a71.05,71.05,0,0,0,17.76,3.2,2.08,2.08,0,0,1,1.49,1.31c.8,6.8,1.45,13.6,2.21,20.41.19,1.69-.39,2.09-2.09,2.27-4.55.45-7.72-1.38-10.42-4.93-4.93-6.48-9.31-13.19-11.23-21.23-.08-.33-.15-.66-.2-1A5.61,5.61,0,0,1,140.83,279Z"
              transform="translate(-76.54 -130.76)"/>
        <path class="cls-2"
              d="M228.71,283.41l16.48-2.78c.16,3.1.19,6.14.49,9.15.43,4.31,1.06,8.6,1.58,12.9.41,3.4-.15,3.65-3.44,4.07-4,.51-6.09-1.24-7.47-4.72C233.91,295.88,231.34,289.79,228.71,283.41Z"
              transform="translate(-76.54 -130.76)"/>
        <path class="cls-1"
              d="M99.85,174.33c3.14,0,4.58,2.22,3.87,5-.65,2.59-4.77,5.18-7.37,4.6-.36-.08-.93-.41-.93-.63,0-2.12-.38-4.35.21-6.31S98.37,174.38,99.85,174.33Z"
              transform="translate(-76.54 -130.76)"/>
        <path class="cls-1"
              d="M260.8,238.15a4.52,4.52,0,0,1-4.75,4.46,4.58,4.58,0,1,1,.19-9.16A4.56,4.56,0,0,1,260.8,238Z"
              transform="translate(-76.54 -130.76)"/>
    </g>
    <text class="cls-3" transform="translate(259.43 154.09)">BleuPigs</text>
</svg>