<svg id="Layer_1" data-name="Layer 1" xmlns="http://www.w3.org/2000/svg" viewBox="0 0 382.45 264.39"><defs><style>.cls-1{fill:#fff;}</style></defs><title>PigWhite</title><g id="Layer_1-2" data-name="Layer 1-2"><path class="cls-1" d="M19.42,98.1c0-4.13-.42-8.38.08-12.51,1.19-9.66,7-15.79,16.06-18.78s17.31-2.33,24.09,5.08c10,10.93,5.73,30.58-8.11,37.33-2.53,1.23-5.27,2.06-9,3.48l11.79,10.42c4-5.46,7.37-10.42,11.12-15.06,14.22-17.54,33-28.6,53.87-35.94A208.15,208.15,0,0,1,195.45,60c33.14,1.06,64.27,9,92.49,26.49,8.14,5,14.75,12.58,21.87,19.19,2.5,2.32,3.18,4.92,0,7.9a22.82,22.82,0,0,0-7.32,15.24,168.3,168.3,0,0,0,.5,24.08,17.39,17.39,0,0,0,1.21-2.25c6.33-17.37,18.61-27.94,36.53-32.18,11.84-2.81,22.86-7.32,31.4-16.42,2.29-2.44,4.29-5.15,6.77-8.17,3.46,15.08,3.83,29.58-3.73,43.41-7.84,14.35-21,20.3-36.82,22.66a10.9,10.9,0,0,0,1.47,2.21c5.84,5.08,8.56,11.83,10.42,19.09.87,3.38,1.85,6.75,3,10,2.82,7.62,8.56,11.4,16.52,12,3,.23,6,.24,9,.51,4,.35,5.1,1.86,4.17,5.74-1.77,7.4-3.83,14.73-5.56,22.13-1.25,5.37-4.14,9.64-9,11.8-10.35,4.59-20.7,9.46-31.49,12.73a200.36,200.36,0,0,1-67,8.37c-2.48-.11-3.48.74-3.59,3-.35,7.11-1,14.21-.94,21.32,0,9.49.55,19,.85,28.46.18,5.7-.71,6-6.31,6.69-7.71.91-12.36-2.38-15.3-9-6.1-13.81-12.3-27.57-18.16-41.47-1.22-2.9-2.36-3.84-5.59-3.77-23,.48-46,1.34-68.83-2.2-11.57-1.79-23-4.69-34.37-7.42-3.14-.75-4.7-.17-6.27,2.63-9.9,17.59-17.69,35.87-19.16,56.3-.26,3.57-1.94,4.5-5.46,5-9.14,1.29-13.87-2.75-17.37-10.86A278.94,278.94,0,0,1,49.51,242c-3.36-23.15-5.49-46.4-5-69.81.2-8.33,1.23-16.65,1.7-25a7,7,0,0,0-1.3-4C39,134.52,33.19,125.81,27,117.39a12,12,0,0,0-6.39-3.85A30.07,30.07,0,0,1,4.52,103.3,16.32,16.32,0,0,1,1,90.3c.21-1.65,1.55-3.17,2.38-4.75,1.41,1.06,3.38,1.81,4.12,3.22A18.57,18.57,0,0,0,17,97.83a9,9,0,0,0,1.41.47A3.93,3.93,0,0,0,19.42,98.1ZM42.93,80.23c-2.73.09-6.65,1.3-7.77,5s-.44,7.72-.38,11.62c0,.41,1,1,1.7,1.17,4.79,1.07,12.39-3.71,13.59-8.48C51.37,84.32,48.71,80.19,42.93,80.23ZM339.35,197.77a8.41,8.41,0,0,0-8.14-8.66H331c-4.47,0-8.83,4.23-8.76,8.5s4.24,8.4,8.4,8.38C335.62,206,339.4,202.41,339.35,197.77Z" transform="translate(-0.79 -59.92)"/><path class="cls-1" d="M118.4,273c1.36.33,2.77.61,4.15,1a131.36,131.36,0,0,0,32.71,5.9,3.82,3.82,0,0,1,2.74,2.4c1.48,12.52,2.68,25.06,4.07,37.59.35,3.12-.72,3.86-3.84,4.18-8.39.84-14.22-2.54-19.2-9.08-9.08-11.93-17.14-24.28-20.67-39.1a16.3,16.3,0,0,1-.37-1.82A8.67,8.67,0,0,1,118.4,273Z" transform="translate(-0.79 -59.92)"/><path class="cls-1" d="M280.25,281.12,310.61,276c.29,5.71.35,11.31.9,16.85.79,7.94,1.95,15.84,2.91,23.77.76,6.25-.28,6.72-6.33,7.49-7.42.94-11.23-2.29-13.76-8.69C289.84,304.09,285.09,292.88,280.25,281.12Z" transform="translate(-0.79 -59.92)"/></g></svg>